:SAMPLES-PER-SECOND 30
:FULLY-SPECIFIED
:DEGREES
705
root  -63.459 39.6798 0.514688 133.01 82.0044 138.773
RightUpLeg  -17.378 1.6498 -8.94645
RightLeg  26.0507 0.860117 0.269201
RightFoot  -4.92388 -0.610641 10.2683
RightToes  -3.31784e-009 0 -3.6325e-017
Spine  11.7478 0.691579 -5.317
Spine1  3.23379 0.841551 -4.00554
HEad  -19.1473 8.29004 -10.4779
LeftShoulder1  -0.46591 4.72533 -31.9912
LeftArm  9.91656 -9.77735 -46.8491
LeftForeArm  16.0242 -23.6439 -4.24604
LeftHand  0.0172207 8.17321 2.40806
RightShoulder  -1.20501 -6.70485 31.1276
RightArm  23.5986 1.75916 48.8007
RightForeArm  9.56241 17.5408 5.67846
RightHand  -0.106378 5.79382 -1.41146
LeftUpLeg  3.43649 5.22535 -9.02003
LeftLeg  15.121 8.41663 0.782928
LeftFoot  -11.7611 0.0958346 6.94573
LeftToes  1.28511e-009 -3.60458e-011 6.16399e-011
706
root  -62.6551 39.6387 0.334448 134.951 81.8126 140.382
RightUpLeg  -17.4174 -1.21138 -7.95035
RightLeg  17.8044 2.23576 0.529996
RightFoot  -4.88143 -0.666389 11.1861
RightToes  -3.31784e-009 0 -3.6325e-017
Spine  11.4572 0.666149 -5.12174
Spine1  3.25783 0.835677 -3.49231
HEad  -19.2061 9.90794 -11.4117
LeftShoulder1  -0.521706 4.85548 -32.4579
LeftArm  11.2038 -10.285 -47.1251
LeftForeArm  15.6515 -22.5583 -4.24703
LeftHand  -0.00279101 7.64721 1.89927
RightShoulder  -1.16782 -6.63008 30.8333
RightArm  22.6266 1.2858 49.0524
RightForeArm  11.2133 16.3811 6.03878
RightHand  -0.0108023 5.66247 -0.513158
LeftUpLeg  4.77294 5.1216 -9.1595
LeftLeg  14.5016 8.28246 0.845373
LeftFoot  -12.7878 0.161523 6.67234
LeftToes  1.28511e-009 -3.60458e-011 6.16399e-011
707
root  -61.7858 39.6196 0.116781 136.303 81.5247 141.184
RightUpLeg  -17.4556 -5.10407 -6.6841
RightLeg  10.2828 5.10129 0.693604
RightFoot  -4.69332 -0.689506 11.2859
RightToes  -3.31784e-009 0 -3.6325e-017
Spine  10.4129 0.493693 -4.22379
Spine1  4.07387 0.925584 -3.80719
HEad  -19.7732 11.4435 -12.406
LeftShoulder1  -0.538963 4.89683 -32.5349
LeftArm  12.1757 -9.94394 -47.4572
LeftForeArm  15.9767 -21.9032 -4.39419
LeftHand  -0.00966506 8.1561 1.35643
RightShoulder  -1.13392 -6.53843 30.8318
RightArm  22.2164 0.553499 49.114
RightForeArm  12.4495 16.0185 6.11574
RightHand  -0.0737802 2.3302 -1.2509
LeftUpLeg  6.31488 5.02947 -9.36645
LeftLeg  13.2317 8.07044 0.579917
LeftFoot  -13.432 0.203405 6.70197
LeftToes  1.28511e-009 -3.60458e-011 6.16399e-011
708
root  -60.8785 39.5542 -0.0656524 140.006 81.058 144.575
RightUpLeg  -16.8385 -7.1665 -5.59933
RightLeg  3.47856 6.69341 0.386911
RightFoot  -4.69078 -0.747166 12.2646
RightToes  -3.31784e-009 0 -3.6325e-017
Spine  9.75055 0.326233 -3.70385
Spine1  4.84807 0.744603 -3.29505
HEad  -20.0428 13.0868 -13.6571
LeftShoulder1  -0.619448 5.07978 -33.1499
LeftArm  13.9603 -9.42286 -47.2957
LeftForeArm  15.6229 -21.1556 -4.74487
LeftHand  0.00693637 8.69963 1.81026
RightShoulder  -1.09064 -6.45909 30.3707
RightArm  21.163 -0.157702 49.2962
RightForeArm  13.3715 15.2339 6.31727
RightHand  -0.0588053 3.26934 -1.04045
LeftUpLeg  7.85588 5.10748 -9.21448
LeftLeg  12.6061 7.21618 0.411398
LeftFoot  -14.2316 0.255155 6.71646
LeftToes  1.28511e-009 -3.60458e-011 6.16399e-011
709
root  -59.9056 39.433 -0.236017 143.056 80.7894 147.214
RightUpLeg  -16.4722 -6.96066 -5.10366
RightLeg  -0.703112 6.3788 0.258403
RightFoot  -4.63811 -0.744647 12.1215
RightToes  -3.31784e-009 0 -3.6325e-017
Spine  9.22631 0.350733 -2.86961
Spine1  5.2802 0.847687 -3.19029
HEad  -20.1399 14.9692 -14.4043
LeftShoulder1  -0.67755 5.21286 -33.4861
LeftArm  14.9851 -8.53347 -47.3216
LeftForeArm  15.918 -19.7693 -5.51808
LeftHand  0.0278481 8.85106 2.42521
RightShoulder  -1.10866 -6.50739 30.3793
RightArm  19.8138 -1.0109 48.9061
RightForeArm  14.9205 14.3135 6.49557
RightHand  -0.0264221 3.99846 -0.596218
LeftUpLeg  9.19215 5.25357 -8.95076
LeftLeg  12.4387 6.72136 0.45026
LeftFoot  -15.5634 0.331585 6.45271
LeftToes  1.28511e-009 -3.60458e-011 6.16399e-011
